<svg xmlns="http://www.w3.org/2000/svg" viewBox="0 0 298.88 5.47"><defs><style>.cls-1{fill:#fff;}</style></defs><title>wave</title><g id="Calque_2" data-name="Calque 2"><g id="Calque_1-2" data-name="Calque 1"><path class="cls-1" d="M150,2.21c5.2.41,10-.33,15.12-1.08,5.6-.75,11.4-1.59,17.2-.84,1.1.17,2.2.34,3.3.42,4.7.67,9.1,1.25,13.9.67l.5-.09c4.6-.5,8.9-1.08,13.6-.58,2.5.25,5,.67,7.4,1,2.6.42,5.3.83,8,1.08a101.7,101.7,0,0,0,15.9.17c3-.25,6.1-.67,9.1-1.17,6.7-1,13.7-2.08,20.3-.5,1.3.34,2.4.75,3.6,1.17,1,.33,2.1.75,3.1,1a13.4,13.4,0,0,0,7-.17l1.8-.5c2.92-.81,5.85-1.53,9.05-.64V3.63l-.21,0c-2.77-.69-5.34,0-8.14.79a19.75,19.75,0,0,1-6.3,1.08,18.5,18.5,0,0,1-5.3-1.08,34.51,34.51,0,0,0-9.2-2.25c-4.6-.34-9.3.41-13.8,1.08l-1.9.25a123.93,123.93,0,0,1-14.9,1.25,94.15,94.15,0,0,1-14.5-.92c-1.5-.16-3-.41-4.4-.66A63.7,63.7,0,0,0,208.93,2a48.79,48.79,0,0,0-7.1.67,62.19,62.19,0,0,1-7.9.66,49.07,49.07,0,0,1-7.9-.91,53.06,53.06,0,0,0-7.4-.92,71.49,71.49,0,0,0-13.4,1.17c-5.1.75-9.49,1.57-14.89,1.07l-1.11-.11c-2.77-.69-5.33,0-8.13.79a19.75,19.75,0,0,1-6.3,1.08,18.5,18.5,0,0,1-5.3-1.08,34.51,34.51,0,0,0-9.2-2.25c-4.6-.34-9.3.41-13.8,1.08l-1.9.25A123.93,123.93,0,0,1,89.7,4.71a94.15,94.15,0,0,1-14.5-.92c-1.5-.16-3-.41-4.4-.66A63.7,63.7,0,0,0,59.5,2a48.79,48.79,0,0,0-7.1.67,62.19,62.19,0,0,1-7.9.66,49.07,49.07,0,0,1-7.9-.91,53.06,53.06,0,0,0-7.4-.92A71.49,71.49,0,0,0,15.8,2.63c-5.1.75-10.4,1.5-15.8,1V2.14H.1a70.19,70.19,0,0,0,15.6-1C21.3.38,27.1-.46,32.9.29c1.1.17,2.2.34,3.3.42,4.7.67,9.1,1.25,13.9.67l.5-.09C55.2.79,59.5.21,64.2.71c2.5.25,5,.67,7.4,1,2.6.42,5.3.83,8,1.08A101.7,101.7,0,0,0,95.5,3c3-.25,6.1-.67,9.1-1.17,6.7-1,13.7-2.08,20.3-.5,1.3.34,2.4.75,3.6,1.17,1,.33,2.1.75,3.1,1a13.4,13.4,0,0,0,7-.17l1.8-.5c2.92-.81,5.9-1.55,9.09-.67Z"/></g></g></svg>